<svg id="Layer_1" data-name="Layer 1" xmlns="http://www.w3.org/2000/svg" xmlns:xlink="http://www.w3.org/1999/xlink" viewBox="0 0 795.43 629.41"><defs><linearGradient id="linear-gradient" x1="397.72" y1="522.33" x2="397.72" gradientUnits="userSpaceOnUse"><stop offset="0" stop-color="#eaeaeb"/><stop offset="0.51" stop-color="#ababaf"/><stop offset="0.66" stop-color="#c6c6c9"/><stop offset="1" stop-color="#fff"/></linearGradient></defs><title>computerBg</title><polygon points="314.32 522.05 512.1 522.05 529.16 615.59 296.39 615.59 314.32 522.05" style="fill:#f6f6f6"/><polygon points="515.51 540.76 512.1 522.05 314.32 522.05 310.7 540.94 515.51 540.76" style="fill:#aaa9a9"/><polygon points="515.54 540.93 512.12 522.19 314.3 522.2 310.67 541.13 515.54 540.93" style="fill:#abaaaa"/><polygon points="515.57 541.1 512.15 522.33 314.27 522.35 310.63 541.32 515.57 541.1" style="fill:#acabab"/><polygon points="515.6 541.27 512.17 522.47 314.24 522.5 310.6 541.51 515.6 541.27" style="fill:#adacac"/><polygon points="515.63 541.45 512.2 522.61 314.21 522.64 310.57 541.7 515.63 541.45" style="fill:#aeadad"/><polygon points="515.67 541.62 512.22 522.75 314.18 522.79 310.53 541.88 515.67 541.62" style="fill:#afaeae"/><polygon points="515.7 541.79 512.25 522.89 314.15 522.94 310.5 542.08 515.7 541.79" style="fill:#b0afaf"/><polygon points="515.73 541.96 512.27 523.02 314.13 523.09 310.46 542.26 515.73 541.96" style="fill:#b1b0b0"/><polygon points="515.76 542.13 512.3 523.16 314.1 523.23 310.43 542.45 515.76 542.13" style="fill:#b2b1b1"/><polygon points="515.79 542.3 512.32 523.3 314.07 523.38 310.39 542.64 515.79 542.3" style="fill:#b3b2b2"/><polygon points="515.82 542.47 512.35 523.44 314.04 523.53 310.36 542.83 515.82 542.47" style="fill:#b4b3b3"/><polygon points="515.85 542.64 512.37 523.58 314.01 523.68 310.32 543.02 515.85 542.64" style="fill:#b5b4b4"/><polygon points="515.88 542.81 512.4 523.72 313.99 523.82 310.29 543.21 515.88 542.81" style="fill:#b6b5b5"/><polygon points="515.91 542.98 512.42 523.86 313.96 523.97 310.25 543.4 515.91 542.98" style="fill:#b7b6b6"/><polygon points="515.95 543.15 512.45 524 313.93 524.12 310.22 543.59 515.95 543.15" style="fill:#b8b7b7"/><polygon points="515.98 543.32 512.48 524.13 313.9 524.27 310.19 543.78 515.98 543.32" style="fill:#b9b8b8"/><polygon points="516.01 543.49 512.5 524.27 313.87 524.41 310.15 543.97 516.01 543.49" style="fill:#bab9b9"/><polygon points="516.04 543.66 512.53 524.41 313.84 524.56 310.12 544.16 516.04 543.66" style="fill:#bbbaba"/><polygon points="516.07 543.83 512.55 524.55 313.82 524.71 310.08 544.35 516.07 543.83" style="fill:#bcbbbb"/><polygon points="516.1 544 512.58 524.69 313.79 524.86 310.05 544.53 516.1 544" style="fill:#bdbcbc"/><polygon points="516.13 544.17 512.6 524.83 313.76 525 310.01 544.73 516.13 544.17" style="fill:#bdbdbd"/><polygon points="516.16 544.35 512.63 524.97 313.73 525.15 309.98 544.91 516.16 544.35" style="fill:#bebebe"/><polygon points="516.2 544.52 512.65 525.11 313.7 525.3 309.94 545.1 516.2 544.52" style="fill:#bfbfbf"/><polygon points="516.23 544.69 512.68 525.25 313.68 525.45 309.91 545.29 516.23 544.69" style="fill:silver"/><polygon points="516.26 544.86 512.7 525.38 313.65 525.59 309.88 545.48 516.26 544.86" style="fill:#c1c1c1"/><polygon points="516.29 545.03 512.73 525.52 313.62 525.74 309.84 545.67 516.29 545.03" style="fill:#c2c2c2"/><polygon points="516.32 545.2 512.75 525.66 313.59 525.89 309.81 545.86 516.32 545.2" style="fill:#c3c3c3"/><polygon points="516.35 545.37 512.78 525.8 313.56 526.04 309.77 546.05 516.35 545.37" style="fill:#c4c4c4"/><polygon points="516.38 545.54 512.8 525.94 313.53 526.18 309.74 546.24 516.38 545.54" style="fill:#c5c5c5"/><polygon points="516.41 545.71 512.83 526.08 313.5 526.33 309.7 546.43 516.41 545.71" style="fill:#c6c6c6"/><polygon points="516.44 545.88 512.86 526.22 313.48 526.48 309.67 546.62 516.44 545.88" style="fill:#c7c7c7"/><polygon points="516.48 546.05 512.88 526.36 313.45 526.63 309.63 546.81 516.48 546.05" style="fill:#c8c8c8"/><polygon points="516.51 546.22 512.91 526.49 313.42 526.77 309.6 547 516.51 546.22" style="fill:#c9c9c9"/><polygon points="516.54 546.39 512.93 526.63 313.39 526.92 309.56 547.18 516.54 546.39" style="fill:#cacaca"/><polygon points="516.57 546.56 512.96 526.77 313.36 527.07 309.53 547.37 516.57 546.56" style="fill:#cbcbcb"/><polygon points="516.6 546.73 512.98 526.91 313.33 527.22 309.5 547.56 516.6 546.73" style="fill:#ccc"/><polygon points="516.63 546.9 513.01 527.05 313.31 527.36 309.46 547.75 516.63 546.9" style="fill:#cdcdcd"/><polygon points="516.66 547.08 513.03 527.19 313.28 527.51 309.43 547.94 516.66 547.08" style="fill:#cecece"/><polygon points="516.69 547.25 513.06 527.33 313.25 527.66 309.39 548.13 516.69 547.25" style="fill:#cfcfcf"/><polygon points="516.72 547.42 513.08 527.47 313.22 527.8 309.36 548.32 516.72 547.42" style="fill:#d0d0d0"/><polygon points="516.76 547.59 513.11 527.6 313.19 527.95 309.32 548.51 516.76 547.59" style="fill:#d1d0d0"/><polygon points="516.79 547.76 513.13 527.74 313.17 528.1 309.29 548.7 516.79 547.76" style="fill:#d2d1d1"/><polygon points="516.82 547.93 513.16 527.88 313.14 528.25 309.25 548.89 516.82 547.93" style="fill:#d3d2d2"/><polygon points="516.85 548.1 513.18 528.02 313.11 528.39 309.22 549.08 516.85 548.1" style="fill:#d4d3d3"/><polygon points="516.88 548.27 513.21 528.16 313.08 528.54 309.18 549.27 516.88 548.27" style="fill:#d5d4d4"/><polygon points="516.91 548.44 513.24 528.3 313.05 528.69 309.15 549.46 516.91 548.44" style="fill:#d6d5d5"/><polygon points="516.94 548.61 513.26 528.44 313.02 528.84 309.11 549.65 516.94 548.61" style="fill:#d7d6d6"/><polygon points="516.97 548.78 513.29 528.58 313 528.99 309.08 549.84 516.97 548.78" style="fill:#d8d7d7"/><polygon points="517 548.95 513.31 528.71 312.97 529.13 309.05 550.02 517 548.95" style="fill:#d9d8d8"/><polygon points="517.04 549.12 513.34 528.85 312.94 529.28 309.01 550.21 517.04 549.12" style="fill:#dad9d9"/><polygon points="517.07 549.29 513.36 528.99 312.91 529.43 308.98 550.4 517.07 549.29" style="fill:#dbdada"/><polygon points="517.1 549.46 513.39 529.13 312.88 529.58 308.94 550.59 517.1 549.46" style="fill:#dcdbdb"/><polygon points="517.13 549.63 513.41 529.27 312.86 529.72 308.91 550.78 517.13 549.63" style="fill:#dddcdc"/><polygon points="517.16 549.8 513.44 529.41 312.83 529.87 308.87 550.97 517.16 549.8" style="fill:#dedddd"/><polygon points="517.19 549.98 513.46 529.55 312.8 530.02 308.84 551.16 517.19 549.98" style="fill:#dfdede"/><polygon points="517.22 550.15 513.49 529.68 312.77 530.16 308.8 551.35 517.22 550.15" style="fill:#e0dfdf"/><polygon points="517.25 550.32 513.51 529.82 312.74 530.31 308.77 551.54 517.25 550.32" style="fill:#e1e0e0"/><polygon points="517.28 550.49 513.54 529.96 312.71 530.46 308.73 551.73 517.28 550.49" style="fill:#e2e1e1"/><polygon points="517.32 550.66 513.56 530.1 312.69 530.61 308.7 551.92 517.32 550.66" style="fill:#e3e2e2"/><polygon points="517.35 550.83 513.59 530.24 312.66 530.75 308.67 552.11 517.35 550.83" style="fill:#e3e3e3"/><polygon points="517.38 551 513.62 530.38 312.63 530.9 308.63 552.3 517.38 551" style="fill:#e4e4e4"/><polygon points="517.41 551.17 513.64 530.52 312.6 531.05 308.6 552.49 517.41 551.17" style="fill:#e5e5e5"/><polygon points="517.44 551.34 513.67 530.66 312.57 531.2 308.56 552.67 517.44 551.34" style="fill:#e6e6e6"/><polygon points="517.47 551.51 513.69 530.79 312.54 531.35 308.53 552.86 517.47 551.51" style="fill:#e7e7e7"/><polygon points="517.5 551.68 513.72 530.93 312.51 531.49 308.49 553.05 517.5 551.68" style="fill:#e8e8e8"/><polygon points="517.53 551.85 513.74 531.07 312.49 531.64 308.46 553.24 517.53 551.85" style="fill:#e9e9e9"/><polygon points="517.57 552.02 513.77 531.21 312.46 531.79 308.42 553.43 517.57 552.02" style="fill:#eaeaea"/><polygon points="517.6 552.19 513.79 531.35 312.43 531.93 308.39 553.62 517.6 552.19" style="fill:#ebebeb"/><polygon points="517.63 552.36 513.82 531.49 312.4 532.08 308.35 553.81 517.63 552.36" style="fill:#ececec"/><polygon points="517.66 552.53 513.84 531.63 312.37 532.23 308.32 554 517.66 552.53" style="fill:#ededed"/><polygon points="517.69 552.71 513.87 531.77 312.35 532.38 308.29 554.19 517.69 552.71" style="fill:#eee"/><polygon points="517.72 552.88 513.89 531.9 312.32 532.52 308.25 554.38 517.72 552.88" style="fill:#efefef"/><polygon points="517.75 553.05 513.92 532.04 312.29 532.67 308.22 554.57 517.75 553.05" style="fill:#f0f0f0"/><polygon points="517.78 553.22 513.94 532.18 312.26 532.82 308.18 554.76 517.78 553.22" style="fill:#f1f1f1"/><polygon points="517.81 553.39 513.97 532.32 312.23 532.97 308.15 554.95 517.81 553.39" style="fill:#f2f2f2"/><polygon points="517.85 553.56 514 532.46 312.2 533.11 308.11 555.13 517.85 553.56" style="fill:#f3f3f3"/><polygon points="517.88 553.73 514.02 532.6 312.18 533.26 308.08 555.32 517.88 553.73" style="fill:#f4f4f4"/><polygon points="517.91 553.9 514.05 532.74 312.15 533.41 308.04 555.51 517.91 553.9" style="fill:#f5f5f5"/><polygon points="517.94 554.07 514.07 532.88 312.12 533.56 308.01 555.7 517.94 554.07" style="fill:#f6f6f6"/><polygon points="298.99 602.05 296.39 615.59 529.16 615.59 524.78 601.2 298.99 602.05" style="fill:#c4c4c4"/><polygon points="299.02 601.88 296.41 615.49 529.14 615.47 524.79 601.06 299.02 601.88" style="fill:#c5c5c5"/><polygon points="299.05 601.72 296.43 615.39 529.12 615.36 524.8 600.92 299.05 601.72" style="fill:#c6c6c6"/><polygon points="299.08 601.55 296.45 615.3 529.1 615.25 524.81 600.78 299.08 601.55" style="fill:#c7c7c7"/><polygon points="299.12 601.38 296.46 615.2 529.08 615.13 524.82 600.64 299.12 601.38" style="fill:#c8c8c8"/><polygon points="299.15 601.21 296.48 615.1 529.06 615.02 524.83 600.5 299.15 601.21" style="fill:#c9c9c9"/><polygon points="299.18 601.04 296.5 615.01 529.04 614.91 524.84 600.37 299.18 601.04" style="fill:#cacaca"/><polygon points="299.21 600.87 296.52 614.91 529.02 614.79 524.85 600.23 299.21 600.87" style="fill:#cbcbcb"/><polygon points="299.24 600.7 296.54 614.81 529 614.68 524.86 600.09 299.24 600.7" style="fill:#ccc"/><polygon points="299.28 600.48 296.56 614.66 528.98 614.51 524.87 599.89 299.28 600.48" style="fill:#cdcdcd"/><polygon points="299.31 600.3 296.58 614.56 528.96 614.39 524.88 599.75 299.31 600.3" style="fill:#cecece"/><polygon points="299.34 600.13 296.59 614.45 528.94 614.27 524.88 599.6 299.34 600.13" style="fill:#cfcfcf"/><polygon points="299.37 599.96 296.61 614.35 528.92 614.15 524.89 599.45 299.37 599.96" style="fill:#d0d0d0"/><polygon points="299.41 599.78 296.63 614.25 528.9 614.03 524.9 599.31 299.41 599.78" style="fill:#d1d1d1"/><polygon points="299.44 599.61 296.65 614.14 528.88 613.91 524.91 599.16 299.44 599.61" style="fill:#d2d2d2"/><polygon points="299.47 599.43 296.67 614.04 528.86 613.79 524.92 599.02 299.47 599.43" style="fill:#d3d3d3"/><polygon points="299.5 599.26 296.69 613.94 528.84 613.68 524.93 598.87 299.5 599.26" style="fill:#d4d4d4"/><polygon points="299.54 599.08 296.71 613.84 528.81 613.56 524.94 598.73 299.54 599.08" style="fill:#d5d5d5"/><polygon points="299.57 598.91 296.72 613.73 528.79 613.44 524.95 598.58 299.57 598.91" style="fill:#d6d6d6"/><polygon points="299.6 598.73 296.74 613.63 528.77 613.32 524.96 598.43 299.6 598.73" style="fill:#d7d7d7"/><polygon points="299.63 598.56 296.76 613.53 528.75 613.2 524.96 598.29 299.63 598.56" style="fill:#d8d8d8"/><polygon points="299.66 598.38 296.78 613.42 528.73 613.08 524.97 598.14 299.66 598.38" style="fill:#d9d9d9"/><polygon points="299.7 598.21 296.8 613.32 528.71 612.96 524.98 598 299.7 598.21" style="fill:#dadada"/><polygon points="299.73 598.03 296.82 613.22 528.69 612.84 524.99 597.85 299.73 598.03" style="fill:#dbdbdb"/><polygon points="299.76 597.86 296.84 613.11 528.67 612.72 525 597.71 299.76 597.86" style="fill:#dcdcdc"/><polygon points="299.79 597.68 296.85 613.01 528.65 612.6 525.01 597.56 299.79 597.68" style="fill:#ddd"/><polygon points="299.83 597.51 296.87 612.91 528.63 612.48 525.02 597.41 299.83 597.51" style="fill:#ddd"/><polygon points="299.86 597.33 296.89 612.8 528.61 612.36 525.03 597.27 299.86 597.33" style="fill:#dedede"/><polygon points="299.89 597.16 296.91 612.7 528.59 612.24 525.04 597.12 299.89 597.16" style="fill:#dfdfdf"/><polygon points="299.92 596.98 296.93 612.6 528.57 612.12 525.04 596.98 299.92 596.98" style="fill:#e0e0e0"/><polygon points="299.95 596.82 296.95 612.51 528.54 612.01 525.05 596.84 299.95 596.82" style="fill:#e1e1e1"/><polygon points="299.99 596.66 296.97 612.42 528.52 611.91 525.06 596.71 299.99 596.66" style="fill:#e2e2e2"/><polygon points="300.02 596.5 296.98 612.33 528.5 611.8 525.07 596.58 300.02 596.5" style="fill:#e3e3e3"/><polygon points="300.05 596.34 297 612.24 528.48 611.7 525.08 596.45 300.05 596.34" style="fill:#e4e4e4"/><polygon points="300.08 596.18 297.02 612.15 528.46 611.6 525.09 596.32 300.08 596.18" style="fill:#e5e5e5"/><polygon points="300.12 596.02 297.04 612.07 528.44 611.49 525.1 596.19 300.12 596.02" style="fill:#e6e6e6"/><polygon points="300.15 595.86 297.06 611.98 528.42 611.38 525.11 596.06 300.15 595.86" style="fill:#e7e7e7"/><polygon points="300.18 595.7 297.08 611.89 528.4 611.28 525.12 595.93 300.18 595.7" style="fill:#e8e8e8"/><polygon points="300.21 595.54 297.1 611.8 528.38 611.17 525.13 595.8 300.21 595.54" style="fill:#e9e9e9"/><polygon points="300.25 595.38 297.11 611.71 528.36 611.07 525.13 595.66 300.25 595.38" style="fill:#eaeaea"/><polygon points="300.28 595.22 297.13 611.62 528.34 610.97 525.14 595.53 300.28 595.22" style="fill:#ebebeb"/><polygon points="300.31 595.06 297.15 611.53 528.32 610.86 525.15 595.4 300.31 595.06" style="fill:#ececec"/><polygon points="300.34 594.9 297.17 611.45 528.3 610.76 525.16 595.27 300.34 594.9" style="fill:#ededed"/><polygon points="300.38 594.74 297.19 611.36 528.28 610.65 525.17 595.14 300.38 594.74" style="fill:#eee"/><polygon points="300.41 594.58 297.21 611.27 528.26 610.55 525.18 595.01 300.41 594.58" style="fill:#efefef"/><polygon points="300.44 594.42 297.23 611.18 528.24 610.44 525.19 594.88 300.44 594.42" style="fill:#f0f0f0"/><polygon points="300.47 594.3 297.24 611.13 528.21 610.38 525.2 594.79 300.47 594.3" style="fill:#f1f1f1"/><polygon points="300.5 594.13 297.26 611.04 528.19 610.26 525.21 594.65 300.5 594.13" style="fill:#f2f2f2"/><polygon points="300.54 593.96 297.28 610.94 528.17 610.15 525.22 594.51 300.54 593.96" style="fill:#f3f3f3"/><polygon points="300.57 593.79 297.3 610.84 528.15 610.04 525.22 594.37 300.57 593.79" style="fill:#f4f4f4"/><polygon points="300.6 593.62 297.32 610.75 528.13 609.92 525.23 594.23 300.6 593.62" style="fill:#f5f5f5"/><polygon points="300.63 593.46 297.34 610.65 528.11 609.81 525.24 594.09 300.63 593.46" style="fill:#f6f6f6"/><path d="M557.42,620.63l-28.25-5H296.39l-28.26,5a1.83,1.83,0,0,0-1.5,1.8v5.64a1.34,1.34,0,0,0,1.33,1.34H557.59a1.34,1.34,0,0,0,1.34-1.34v-5.64A1.84,1.84,0,0,0,557.42,620.63Z" style="fill:#f6f3f3"/><polygon points="550.19 619.34 529.16 615.59 296.39 615.59 275.36 619.34 550.19 619.34" style="fill:#bebcbc"/><path d="M295.89,615.68l-6.43,1.17-14.25,2.65,1.91,0s273.2,0,273.23,0l-14.26-2.65-6.43-1.17H295.89Z" style="fill:#bfbdbd"/><path d="M295.4,615.76s-6.34,1.16-6.34,1.19l-14,2.7s1.87.05,1.89.05,273.5,0,273.55-.05l-14-2.7s-6.31-1.18-6.34-1.19H295.4Z" style="fill:#c0bebe"/><path d="M294.9,615.85s-6.25,1.15-6.25,1.2L274.9,619.8s1.85.07,1.89.07,273.79,0,273.86-.07l-13.74-2.75s-6.21-1.19-6.26-1.2l-2.1,0S295,615.83,294.9,615.85Z" style="fill:#c1bfbf"/><path d="M294.41,615.94c-.06,0-6.17,1.15-6.17,1.21L274.75,620s1.82.09,1.88.09,274.08,0,274.18-.09l-13.5-2.81c0-.06-6.1-1.2-6.16-1.21l-2.11,0S294.59,615.91,294.41,615.94Z" style="fill:#c2c0c0"/><path d="M293.91,616c-.07,0-6.08,1.14-6.08,1.22l-13.23,2.86a18.17,18.17,0,0,0,1.86.12s274.38,0,274.5-.12l-13.24-2.86c0-.08-6-1.21-6.08-1.22l-2.12,0S294.14,616,293.91,616Z" style="fill:#c3c1c1"/><path d="M293.42,616.12c-.1,0-6,1.14-6,1.23l-13,2.91a13.52,13.52,0,0,0,1.86.14s274.67,0,274.81-.14l-13-2.91c0-.09-5.9-1.21-6-1.23l-2.13,0S293.69,616.07,293.42,616.12Z" style="fill:#c4c2c2"/><path d="M292.92,616.21c-.11,0-5.9,1.13-5.9,1.24l-12.73,3a11.76,11.76,0,0,0,1.85.17s275,0,275.13-.17l-12.73-3c0-.11-5.8-1.22-5.9-1.24l-2.14-.06S293.24,616.15,292.92,616.21Z" style="fill:#c5c3c3"/><path d="M292.42,616.3c-.12,0-5.81,1.12-5.81,1.25l-12.47,3a10.32,10.32,0,0,0,1.83.18s275.26,0,275.45-.18l-12.47-3c0-.13-5.7-1.23-5.82-1.25l-2.15-.07S292.79,616.23,292.42,616.3Z" style="fill:#c6c4c4"/><path d="M291.93,616.38c-.14,0-5.73,1.13-5.73,1.27L274,620.72a8.52,8.52,0,0,0,1.83.21s275.55,0,275.76-.21l-12.22-3.07c0-.14-5.59-1.24-5.72-1.27l-2.16-.07S292.34,616.31,291.93,616.38Z" style="fill:#c7c5c5"/><path d="M291.43,616.47c-.15,0-5.64,1.12-5.64,1.28l-12,3.12a7.71,7.71,0,0,0,1.82.24s275.84,0,276.07-.24l-12-3.12c0-.16-5.48-1.25-5.64-1.28l-2.16-.08S291.89,616.39,291.43,616.47Z" style="fill:#c8c6c6"/><path d="M290.94,616.56c-.17,0-5.55,1.12-5.55,1.29L273.68,621a7,7,0,0,0,1.8.25s276.14,0,276.4-.25l-11.71-3.18c0-.17-5.38-1.26-5.55-1.29l-2.18-.09S291.44,616.47,290.94,616.56Z" style="fill:#c9c7c7"/><path d="M290.44,616.65A53.23,53.23,0,0,0,285,618l-11.46,3.23c0,.16,1.64.28,1.8.28,0,0,276.43,0,276.71-.28L540.58,618a52.81,52.81,0,0,0-5.47-1.3l-2.18-.1S291,616.55,290.44,616.65Z" style="fill:#cac8c8"/><path d="M290,616.74a46,46,0,0,0-5.38,1.31l-11.2,3.28c0,.17,1.62.31,1.79.31,0,0,276.72,0,277-.31L541,618.05a45.84,45.84,0,0,0-5.37-1.31l-2.19-.11S290.54,616.63,290,616.74Z" style="fill:#cbc9c9"/><path d="M289.45,616.83c-.21,0-5.29,1.1-5.29,1.32l-10.94,3.34c0,.18,1.59.32,1.77.32,0,0,277,0,277.35-.32l-11-3.34c0-.22-5.07-1.28-5.28-1.32l-2.21-.12S290.09,616.71,289.45,616.83Z" style="fill:#cccaca"/><path d="M289,616.92c-.22,0-5.19,1.09-5.19,1.33l-10.7,3.39c0,.19,1.57.35,1.77.35,0,0,277.31,0,277.66-.35l-10.69-3.39c0-.24-5-1.29-5.2-1.33l-2.21-.13S289.64,616.79,289,616.92Z" style="fill:#cdcaca"/><path d="M288.46,617c-.25,0-5.11,1.1-5.11,1.35l-10.44,3.44c0,.21,1.55.38,1.75.38,0,0,277.61,0,278-.38l-10.43-3.44c0-.25-4.87-1.3-5.11-1.35l-2.22-.13S289.19,616.87,288.46,617Z" style="fill:#cecbcb"/><path d="M288,617.09c-.26,0-5,1.09-5,1.35L272.76,622c0,.22,1.52.39,1.74.39,0,0,277.9,0,278.3-.39l-10.18-3.51c0-.26-4.77-1.3-5-1.35l-2.23-.14S288.74,617,288,617.09Z" style="fill:#cfcccc"/><path d="M287.47,617.18c-.28.05-4.94,1.09-4.94,1.36l-9.93,3.56c0,.23,1.51.42,1.74.42,0,0,278.19,0,278.61-.42L543,618.54c0-.27-4.66-1.31-4.93-1.36l-2.24-.15S288.29,617,287.47,617.18Z" style="fill:#d0cdcd"/><path d="M287,617.27c-.29.05-4.85,1.08-4.85,1.37l-9.67,3.61c0,.25,1.48.45,1.72.45,0,0,278.49,0,278.93-.45l-9.67-3.61c0-.29-4.56-1.32-4.85-1.37l-2.24-.15S287.84,617.12,287,617.27Z" style="fill:#d1cece"/><path d="M286.48,617.36c-.31,0-4.76,1.07-4.76,1.38l-9.42,3.67c0,.25,1.45.46,1.71.46,0,0,278.78,0,279.25-.46l-9.42-3.67c0-.31-4.45-1.33-4.76-1.38l-2.26-.16S287.39,617.2,286.48,617.36Z" style="fill:#d2cfcf"/><path d="M286,617.45c-.32,0-4.67,1.07-4.67,1.39l-9.16,3.72c0,.27,1.43.49,1.7.49,0,0,279.07,0,279.56-.49l-9.16-3.72c0-.32-4.35-1.34-4.67-1.39l-2.27-.17S286.94,617.28,286,617.45Z" style="fill:#d3d0d0"/><path d="M285.48,617.54c-.33.06-4.58,1.06-4.58,1.4L272,622.71c0,.29,1.41.52,1.69.52,0,0,279.37,0,279.88-.52l-8.91-3.77c0-.34-4.24-1.34-4.58-1.4l-2.27-.18S286.48,617.36,285.48,617.54Z" style="fill:#d4d1d1"/><path d="M285,617.62c-.35.07-4.5,1.07-4.5,1.42l-8.65,3.83c0,.29,1.38.53,1.68.53,0,0,279.66,0,280.2-.53L545.06,619c0-.35-4.14-1.35-4.49-1.42l-2.29-.18S286,617.44,285,617.62Z" style="fill:#d5d2d2"/><path d="M284.49,617.71c-.36.07-4.4,1.06-4.4,1.43l-8.4,3.88c0,.31,1.36.56,1.67.56,0,0,279.95,0,280.51-.56l-8.4-3.88c0-.37-4-1.36-4.41-1.43l-2.29-.19S285.58,617.52,284.49,617.71Z" style="fill:#d6d3d3"/><path d="M284,617.8c-.38.07-4.32,1.05-4.32,1.44l-8.15,3.93c0,.32,1.34.59,1.66.59,0,0,280.25,0,280.83-.59l-8.14-3.93c0-.39-3.94-1.37-4.32-1.44l-2.3-.2S285.13,617.6,284,617.8Z" style="fill:#d7d4d4"/><path d="M283.5,617.89c-.4.07-4.23,1.05-4.23,1.45l-7.89,4c0,.34,1.31.61,1.65.61,0,0,280.54,0,281.15-.61l-7.89-4c0-.4-3.84-1.38-4.24-1.45l-2.31-.21S284.68,617.68,283.5,617.89Z" style="fill:#d8d5d5"/><path d="M283,618c-.42.07-4.15,1-4.15,1.46l-7.63,4c0,.35,1.29.63,1.64.63,0,0,280.83,0,281.46-.63l-7.64-4c0-.42-3.73-1.39-4.14-1.46l-2.32-.22S284.23,617.76,283,618Z" style="fill:#d9d6d6"/><path d="M282.51,618.07c-.43.07-4.06,1-4.06,1.47l-7.38,4.09c0,.36,1.27.66,1.63.66,0,0,281.13,0,281.78-.66l-7.38-4.09c0-.43-3.63-1.4-4.05-1.47l-2.33-.23S283.78,617.84,282.51,618.07Z" style="fill:#dad7d7"/><path d="M282,618.15c-.44.08-4,1-4,1.49l-7.13,4.14c0,.38,1.25.68,1.62.68,0,0,281.42,0,282.1-.68l-7.13-4.14c0-.45-3.53-1.41-4-1.49l-2.34-.23S283.33,617.92,282,618.15Z" style="fill:#dad8d8"/><path d="M281.52,618.24c-.46.09-3.88,1-3.88,1.5l-6.87,4.2c0,.38,1.22.7,1.61.7,0,0,281.71,0,282.41-.7l-6.87-4.2c0-.47-3.42-1.41-3.88-1.5l-2.35-.24S282.88,618,281.52,618.24Z" style="fill:#dbd9d9"/><path d="M281,618.33c-.47.09-3.79,1-3.79,1.51l-6.62,4.25c0,.4,1.2.73,1.6.73,0,0,282,0,282.73-.73l-6.62-4.25c0-.48-3.31-1.42-3.79-1.51l-2.35-.25S282.43,618.08,281,618.33Z" style="fill:#dcdada"/><path d="M280.53,618.42c-.49.09-3.71,1-3.71,1.52l-6.36,4.3c0,.42,1.18.75,1.59.75,0,0,282.3,0,283.05-.75l-6.37-4.3c0-.5-3.21-1.43-3.7-1.52l-2.37-.26S282,618.16,280.53,618.42Z" style="fill:#dddbdb"/><path d="M280,618.51c-.5.09-3.61,1-3.61,1.53l-6.11,4.36c0,.42,1.15.77,1.58.77,0,0,282.59,0,283.36-.77L549.14,620c0-.51-3.11-1.44-3.62-1.53l-2.37-.27S281.53,618.24,280,618.51Z" style="fill:#dedcdc"/><path d="M279.53,618.6c-.51.09-3.52,1-3.52,1.54l-5.86,4.41c0,.44,1.13.79,1.57.79,0,0,282.89,0,283.68-.79l-5.85-4.41c0-.53-3-1.45-3.53-1.54l-2.38-.28S281.08,618.32,279.53,618.6Z" style="fill:#dfdddd"/><path d="M279,618.69c-.53.09-3.44,1-3.44,1.55L270,624.7c0,.45,1.11.82,1.56.82,0,0,283.18,0,284-.82l-5.6-4.46c0-.54-2.91-1.46-3.44-1.55l-2.4-.29S280.63,618.4,279,618.69Z" style="fill:#e0dede"/><path d="M278.54,618.77c-.55.1-3.35,1-3.35,1.57l-5.34,4.52c0,.46,1.08.84,1.55.84,0,0,283.47,0,284.31-.84l-5.35-4.52c0-.56-2.8-1.47-3.35-1.57l-2.4-.29S280.18,618.48,278.54,618.77Z" style="fill:#e1dfdf"/><path d="M278.05,618.86c-.57.1-3.27,1-3.27,1.58L269.69,625c0,.48,1.06.86,1.54.86,0,0,283.77,0,284.63-.86l-5.09-4.57c0-.58-2.7-1.48-3.26-1.58l-2.41-.3S279.73,618.56,278.05,618.86Z" style="fill:#e2e0e0"/><path d="M277.55,619c-.58.11-3.17,1-3.17,1.59l-4.84,4.62c0,.49,1,.89,1.53.89,0,0,284.06,0,284.94-.89l-4.83-4.62c0-.59-2.6-1.48-3.18-1.59l-2.42-.31S279.28,618.64,277.55,619Z" style="fill:#e3e1e1"/><path d="M277.06,619c-.6.11-3.09,1-3.09,1.6l-4.58,4.68c0,.5,1,.91,1.51.91,0,0,284.36,0,285.27-.91l-4.58-4.68c0-.61-2.5-1.49-3.09-1.6l-2.43-.32S278.83,618.72,277.06,619Z" style="fill:#e4e2e2"/><path d="M276.56,619.13c-.61.11-3,1-3,1.61l-4.33,4.73c0,.52,1,.93,1.51.93,0,0,284.65,0,285.58-.93L552,620.74c0-.62-2.38-1.5-3-1.61l-2.44-.33S278.38,618.8,276.56,619.13Z" style="fill:#e5e3e3"/><path d="M276.06,619.22c-.62.11-2.91,1-2.91,1.62l-4.07,4.78c0,.53,1,1,1.5,1,0,0,284.94,0,285.89-1l-4.07-4.78c0-.64-2.28-1.51-2.91-1.62l-2.45-.34S277.93,618.88,276.06,619.22Z" style="fill:#e6e4e4"/><path d="M275.57,619.31c-.64.11-2.82,1-2.82,1.63l-3.82,4.83c0,.55.94,1,1.48,1,0,0,285.24,0,286.22-1l-3.82-4.83c0-.66-2.18-1.52-2.82-1.63l-2.46-.35S277.48,619,275.57,619.31Z" style="fill:#e7e5e5"/><path d="M275.07,619.39c-.65.12-2.73,1-2.73,1.64l-3.57,4.9c0,.55.93,1,1.48,1,0,0,285.53,0,286.53-1l-3.56-4.9c0-.66-2.08-1.52-2.74-1.64L548,619S277,619,275.07,619.39Z" style="fill:#e8e5e5"/><path d="M274.58,619.48c-.67.12-2.65,1-2.65,1.65l-3.31,5c0,.57.9,1,1.47,1,0,0,285.82,0,286.84-1l-3.3-5c0-.68-2-1.53-2.65-1.65l-2.48-.35S276.58,619.13,274.58,619.48Z" style="fill:#e9e6e6"/><path d="M274.08,619.57c-.69.12-2.56,1-2.56,1.66l-3,5c0,.59.87,1.06,1.45,1.06,0,0,286.12,0,287.17-1.06l-3.06-5c0-.69-1.87-1.54-2.56-1.66l-2.48-.36S276.13,619.21,274.08,619.57Z" style="fill:#eae7e7"/><path d="M273.59,619.66c-.71.13-2.48,1-2.48,1.67l-2.8,5.06c0,.59.86,1.07,1.45,1.07,0,0,286.4,0,287.48-1.07l-2.8-5.06c0-.71-1.77-1.54-2.47-1.67l-2.49-.37S275.68,619.29,273.59,619.66Z" style="fill:#ebe8e8"/><path d="M273.09,619.75c-.72.13-2.38,1-2.38,1.68l-2.55,5.11c0,.61.83,1.1,1.44,1.1,0,0,286.69,0,287.79-1.1l-2.54-5.11c0-.73-1.67-1.55-2.38-1.68l-2.51-.38S275.23,619.37,273.09,619.75Z" style="fill:#ece9e9"/><path d="M272.59,619.84c-.73.13-2.29.95-2.29,1.69L268,626.69c0,.62.8,1.13,1.42,1.13,0,0,287,0,288.12-1.13l-2.29-5.16c0-.74-1.57-1.56-2.3-1.69l-2.51-.39S274.78,619.45,272.59,619.84Z" style="fill:#edeaea"/><path d="M272.1,619.93c-.75.13-2.21.94-2.21,1.7l-2,5.22c0,.63.78,1.14,1.41,1.14,0,0,287.28,0,288.43-1.14l-2-5.22c0-.76-1.46-1.57-2.2-1.7l-2.52-.4S274.33,619.53,272.1,619.93Z" style="fill:#eeebeb"/><path d="M271.6,620c-.76.14-2.12,1-2.12,1.72L267.7,627a1.39,1.39,0,0,0,1.41,1.17s287.57,0,288.74-1.17l-1.78-5.27c0-.77-1.35-1.58-2.12-1.72l-2.53-.4S273.88,619.61,271.6,620Z" style="fill:#efecec"/><path d="M271.11,620.1c-.78.14-2,.94-2,1.73l-1.53,5.32a1.38,1.38,0,0,0,1.39,1.2s287.87,0,289.07-1.2l-1.53-5.32c0-.79-1.25-1.59-2-1.73l-2.54-.41S273.43,619.69,271.11,620.1Z" style="fill:#f0eded"/><path d="M270.61,620.19c-.79.14-1.94.93-1.94,1.74l-1.27,5.38a1.36,1.36,0,0,0,1.38,1.21s288.16,0,289.38-1.21l-1.27-5.38c0-.81-1.15-1.6-1.95-1.74l-2.54-.42S273,619.77,270.61,620.19Z" style="fill:#f1eeee"/><path d="M270.12,620.28c-.81.14-1.86.93-1.86,1.75l-1,5.43a1.37,1.37,0,0,0,1.38,1.24s288.45,0,289.69-1.24l-1-5.43c0-.82-1-1.61-1.85-1.75l-2.56-.43S272.53,619.85,270.12,620.28Z" style="fill:#f2efef"/><path d="M269.62,620.37c-.82.15-1.77.92-1.77,1.76l-.76,5.48a1.36,1.36,0,0,0,1.36,1.27s288.75,0,290-1.27l-.77-5.48c0-.84-.94-1.61-1.76-1.76l-2.57-.44S272.08,619.93,269.62,620.37Z" style="fill:#f3f0f0"/><path d="M269.12,620.46a2,2,0,0,0-1.67,1.77l-.51,5.54a1.34,1.34,0,0,0,1.35,1.28s289,0,290.33-1.28l-.51-5.54a2,2,0,0,0-1.68-1.77l-2.57-.45S271.63,620,269.12,620.46Z" style="fill:#f4f1f1"/><path d="M268.63,620.54a1.92,1.92,0,0,0-1.59,1.79l-.26,5.59a1.34,1.34,0,0,0,1.35,1.31s289.33,0,290.64-1.31l-.25-5.59a1.93,1.93,0,0,0-1.59-1.79l-2.59-.45S271.18,620.09,268.63,620.54Z" style="fill:#f5f2f2"/><path d="M557.42,620.63l-2.59-.46H270.73l-2.6.46a1.83,1.83,0,0,0-1.5,1.8v5.64A1.33,1.33,0,0,0,268,629.4H557.59a1.33,1.33,0,0,0,1.34-1.33v-5.64A1.84,1.84,0,0,0,557.42,620.63Z" style="fill:#f6f3f3"/><path d="M773.05,0H22.39C10,0,0,10.86,0,24.27V498.06c0,13.4,10,24.27,22.39,24.27H773.05c12.36,0,22.38-10.87,22.38-24.27V24.27C795.43,10.86,785.41,0,773.05,0Z" style="fill:url(#linear-gradient)"/><path d="M769.61,4.18H25.26C13,4.18,3.07,14.88,3.07,28.06V494.27c0,13.18,9.94,23.88,22.19,23.88H769.61c12.26,0,22.19-10.7,22.19-23.88V28.06C791.8,14.88,781.86,4.18,769.61,4.18Z" style="fill:#060606"/><circle cx="406.12" cy="16.22" r="7.21" style="fill:none;stroke:#212121;stroke-miterlimit:10;stroke-width:0.07452px"/><rect x="20.26" y="23.42" width="753.73" height="478.97" style="fill:#333334"/></svg>